#define 1493485934594_width 15
#define 1493485934594_height 12
static char 1493485934594_bits[] = {
  0xC0, 0x01, 0xF0, 0x07, 0x3C, 0x1E, 0x1E, 0x3C, 0xC7, 0x71, 0xF0, 0x07, 
  0x78, 0x0F, 0x18, 0x0C, 0xC0, 0x01, 0xE0, 0x03, 0xC0, 0x01, 0x80, 0x00, 
  };
