#define 1493460204873_width 20
#define 1493460204873_height 7
static char 1493460204873_bits[] = {
  0xFF, 0xFF, 0x03, 0xFF, 0x3F, 0x02, 0xFF, 0x3F, 0x0E, 0xFF, 0x3F, 0x0E, 
  0xFF, 0x3F, 0x0E, 0xFF, 0x3F, 0x02, 0xFF, 0xFF, 0x03, };
