#define 1493460210750_width 20
#define 1493460210750_height 7
static char 1493460210750_bits[] = {
  0xFF, 0xFF, 0x03, 0xFF, 0x7F, 0x02, 0xFF, 0x7F, 0x0E, 0xFF, 0x7F, 0x0E, 
  0xFF, 0x7F, 0x0E, 0xFF, 0x7F, 0x02, 0xFF, 0xFF, 0x03, };
