#define 1493460185744_width 20
#define 1493460185744_height 7
static char 1493460185744_bits[] = {
  0xFF, 0xFF, 0x03, 0x07, 0x00, 0x02, 0x07, 0x00, 0x0E, 0x07, 0x00, 0x0E, 
  0x07, 0x00, 0x0E, 0x07, 0x00, 0x02, 0xFF, 0xFF, 0x03, };
