#define 1493460191365_width 20
#define 1493460191365_height 7
static char 1493460191365_bits[] = {
  0xFF, 0xFF, 0x03, 0x1F, 0x00, 0x02, 0x1F, 0x00, 0x0E, 0x1F, 0x00, 0x0E, 
  0x1F, 0x00, 0x0E, 0x1F, 0x00, 0x02, 0xFF, 0xFF, 0x03, };
