#define 1493457788245_width 20
#define 1493457788245_height 7
static char 1493457788245_bits[] = {
  0xFF, 0xFF, 0x03, 0xFF, 0xFF, 0x03, 0xFF, 0xFF, 0x0F, 0xFF, 0xFF, 0x0F, 
  0xFF, 0xFF, 0x0F, 0xFF, 0xFF, 0x03, 0xFF, 0xFF, 0x03, };
