#define 1493460198638_width 20
#define 1493460198638_height 7
static char 1493460198638_bits[] = {
  0xFF, 0xFF, 0x03, 0xFF, 0x03, 0x02, 0xFF, 0x03, 0x0E, 0xFF, 0x03, 0x0E, 
  0xFF, 0x03, 0x0E, 0xFF, 0x03, 0x02, 0xFF, 0xFF, 0x03, };
