#define 1493460178822_width 20
#define 1493460178822_height 7
static char 1493460178822_bits[] = {
  0xFF, 0xFF, 0x03, 0x01, 0x00, 0x02, 0x01, 0x00, 0x0E, 0x01, 0x00, 0x0E, 
  0x01, 0x00, 0x0E, 0x01, 0x00, 0x02, 0xFF, 0xFF, 0x03, };
